<svg id="svg2" xmlns="http://www.w3.org/2000/svg" viewBox="0 0 309.59 790.76">
  <defs>
    <style>
      .cls-1 {
        fill: #121234;
      }
    </style>
  </defs>
  <g id="layer1">
    <path id="path3118" class="cls-1" d="M237.48,790.39c-3.53-.55-3.79-3.69-5.39-5.46-4.47-1.39-5.71-3.62-6.49-11.7-.29-3-.74-3.81-2.25-4.12-9.21-1.78-7.37-7.91-5.78-15.11,1.22-5.53-2.89-10.63-4-15.49s.64-9.87,1.11-14.11c1.63-14.57-4.47-45.47-9.16-55.82a101,101,0,0,1-7.82-24.41c-2.83-14.46-2.55-33.47-2.79-43.44-.16-6.33,1.86-13.54-1-19.17-6-12-10.31-23.43-11.84-35.52A281.38,281.38,0,0,0,176,514.1a358.3,358.3,0,0,0-15.11-46c-4.75-11.81-7.13-26.18-9.11-26.33-5.08,13.79-9,29-13.58,42.55A400.11,400.11,0,0,0,127,525.85c-2.81,12.7-1.76,14.57-4.23,28.37-2.2,12.39-10,22.82-10,34.21,0,16.72,4.5,32.82,2,49.69-3.42,23-11.23,45.78-13.83,67.9-.91,7.76-.81,11.33,1.25,21.18,1.6,7.65-5,14.94-2.63,29.42,1.55,9.59-4.79,9.64-11.14,11.72-.94.47-3.93,6.28-4.68,9.09-.69,2.62-2.54,4.74-4.14,4.75s-2.15.46-3,2.25c-1.27,2.63-2.89,3.38-8.42,3.91-5.89.57-7.53.33-8.79-1.27-.91-1.16-.85-1-2.68-.22-5.64,2.46-14.57-3.35-14.31-9.61.19-4.6,4.63-7.55,8.09-10.12s7.91-4.68,10.57-7.94c2.25-2.76,5.64-5.26,6.92-9a22.75,22.75,0,0,1,4.87-7.44c1.72-1.87,1.75-2,1.89-7.16.1-3.8.39-5.76,1-7,2-3.86,1.51-15.07.81-24-2.44-31.21-10.26-59-8.8-89.43A199.6,199.6,0,0,1,74,574.15c1.21-4.8,2-7.18,1.46-16.61-.35-6.46,1.59-12.74,1.31-19-.68-15.65-4.3-31.7-5.09-47.5,0-15.73-1.66-32.91-.06-49.22,1.55-15.75,4-32.64,6.16-55.45,1-10.81,4.32-19.87,5.71-30.59,1-7.44,1.28-11.75,3-19.29,1.58-6.81,2-8.54,3.21-14.93,1.53-8.17,6.49-17.05,6.6-27.63.12-12.3-2.34-30.42-8.17-44.79-.76,8.41-1.17,16-5.41,30-.44,1.46-.6,5.73-.31,9.58.69,9.12,1,17.85-1.49,25.88-1.93,6.09-2.93,12.4-4.89,18.58-3.66,11.54-9.72,22.91-14.65,34.71-2.72,6.52-4.56,12.65-6.87,19.47-1.88,5.55-4.77,11.41-6.32,16.81a9.1,9.1,0,0,0-.35,5.36c1.66,7.38,2.89,14.73,2.1,22.3-.48,4.61-2.83,8.89-2.29,13.37,1.15,9.46,1.3,20.37.13,23.4-.83,2.18-2.89,4.33-4.73,3.35-1.38-.73-2.26-3-2-5.11.42-3.23-.59-8.16-.54-11.5,0-1.81-1.45-6.53-2.28-6.19.42,15.58-1.65,29.82-4.55,33.15-1,1.21-3.8,1.15-4.94-.11-.93-1-.08-5.09.1-8.2.42-7.73,1-13.37-.52-20.11a87.77,87.77,0,0,1-1.92,12,120.32,120.32,0,0,0-2.75,12.82c-.47,3.49-.95,6.42-2.78,7.68-4.35,3-6.26-2.33-6-4.89.15-1.74.61-5.58,1.06-8.53a73.18,73.18,0,0,0,.74-12,85.68,85.68,0,0,0-2.44,10.86c-.78,5.57-2.48,8.61-5.14,8.31-3.59-.42-3.7-4.41-3.41-6.39,1.25-8.45,1.68-17.05,3.18-25.85.54-.87-.73-.48-2.63.8s-3.75,1.61-5.35.75c-1.36-.72-1.26-1.32.77-4.69a17.34,17.34,0,0,0,2.11-6.13,67.75,67.75,0,0,1,5.36-15.86c3.86-7.41,12.82-13,14.07-21.43.73-4.94.89-9.75,2-14.48,2.92-12.34,6-23.55,7.65-36,2-14.92,3.29-30.73,5.35-45,2-13.84,14.29-28.56,13.54-41.91C51,250.38,49.2,231.32,53,220.24c.57-1.57.66-8.5-.7-15.11-1.52-7.34-1.5-19.47,0-27.06,1.25-7.39,2.7-15.56,5.86-21.21,3.16-5.49,9.34-7.47,15.33-10.26,9.49-4.53,23-8,31.69-13,7.06-4.3,12.74-5.37,18.42-9.2.8-.53,4.52-3.66,5.65-5.81s1.1-2.68,1-15.4c-.11-14.55-.13-15-1.28-19.42a28.64,28.64,0,0,1-.8-7.48c-2.8,3.63-7.43,2.61-7.67-1a4.61,4.61,0,0,0-.46-1.88,47.66,47.66,0,0,1-1.4-8,17.66,17.66,0,0,1,.11-7.82c.78-3.86,1.49-4.85,3.27-4.59l1.32.19a123.64,123.64,0,0,1-2.61-18.94,46.24,46.24,0,0,0-.54-6c.18-1,1-2.4.2-2.58-.41-.09,0-1,1.06-2.34a3.84,3.84,0,0,0,1.09-2.72c.59-.76,1.4-.86.58-1.88,1-.06,2.35.47.45-1.67.07-.35.88-.31,1.33-.38a4.21,4.21,0,0,1,.51-4.69c1.66-2.18,5.1-4.85,7.74-5.29a8,8,0,0,0,3.56-1.8c.9-.82,1.71-1.26,1.8-1,.17.49,1.22,0,5.76-2.72C146.24,0,146.78-.08,153.77,0c9,.11,14.41.7,17,1.86,2.45,1.07,2.56.37,1.73-.63,1.33-.39,3.07.67,4.47,2.06,4.1,3.8,8.73,2.37,9.32,4.29-.13,1.39-3.05,2.86,1,2.57,2.32-.17,1.69,1.73,3,2.16-1.15,3.16,1.86-.3,5.07,1-1.15.64-5,1.58-2.78,4.21.84,1,.43,3-.2,4.27s1,4,4.14,2.48c-1,2-1.8,2.31-1.44,6.29,0,4.46-2.08,20.81-2.44,24.52,3.44,1.47,2.17,5.67,2.66,9.46a17.13,17.13,0,0,1-.47,4.86c-.89,3.11-.78,6.47-1.83,9.5-.55,1-2.32,1.67-3.81,1.4-.74-.14-1.12.62-2,4.08A23,23,0,0,1,184.44,91l-1.67,2.37.31,10.24c.17,5.64.44,11.17.61,12.29.45,2.9,2.45,5.75,6.09,8.1,11.83,7.66,26.95,11,40.4,18.56,9,5.09,21.86,7.9,24.67,17.19a99.25,99.25,0,0,1,3,45.27c-1.75,10.77-.59,21,0,31,.8,12.64-3.51,25-.3,36q3.88,13.34,8.18,26.57c1.39,4.29,2.51,15.86,3.27,27.09.82,12,1,25,3.63,36.52,2.71,11.73,5.67,27.51,7.39,38,1.15,7.05,1.31,8.06,10.12,13.72,5.59,3.59,7.18,5.57,8.76,9.38,1.69,4.06,4.57,7.85,6,11.73a28,28,0,0,0,3.06,6c2,2.57,2.17,3.95.72,4.72-1.74.94-5.24-.5-8.21-2.91s-5.19-7-7.67-9.34c-.71,0-.58,15.57.14,17.33s.92,22.68.27,25c-1,3.72-4.76,5.2-6.51,2.58-1-1.52-1.06-1.83-1.57-9.17-.24-3.51-.76-8.13-1.14-10.26a30.42,30.42,0,0,1-.5-6.31c.13-1.61,0-2.33-.33-2.12-.68,4.09,0,7.27.09,11.79,0,1.54-.09,10.6-.09,16.08,0,5.15-.54,6.92-2.31,7.52-2.72.93-5.15-.84-5.61-4.09-.17-1.17-.44-5-.6-8.52-.48-10.5-.82-11.26-1-1-.07,3.27.42,8.73-1.05,9.88a3.53,3.53,0,0,1-5.34-1.37c-1.19-2.19-1.11-5-1.26-7.09-.41-5.89-1.44-12.5-1.11-18.08.29-4.92.71-6.83.11-7s-1.37,6.27-1.47,14.36c-.08,6.08-.19,6.9-1.07,7.54-1.27.93-3.57.92-4.51,0-1.26-1.26-2-8.67-1.95-18.31.07-7.39-1.24-14.83-2.53-21.76-1.48-8,1.49-14.89,2-22.66.38-5.28-2.9-10.26-4.83-15.75-2.73-7.77-2.89-16.9-6.64-23.77-11.18-20.43-18.46-50.3-20.28-63.28-.24-1.75-.59-12.95.36-17.69a19.41,19.41,0,0,0,0-8.81c-2-8.95-3.9-17.6-3.45-25.76-5.42,13.85-6.63,28.43-6.58,42.2,0,9.7,2.67,20.5,2.49,28.11-.18,7.8,2.14,15.35,2.92,22.23,1,8.92,3.28,16,4.83,25,4,23.51,6.42,45.93,10.49,71.3,1.41,8.76,2,47.35.68,58-1.69,14.14-6.94,29.18-5.35,43.2,1.3,11.49,1.5,24,4.19,37.57,3.07,15.53,8.42,30.52,7.44,46.26-1.47,23.77-2.22,46.18-2.93,72.06-.18,6.64-.71,19.55.87,24,1.83,5.16,3.48,10.94,3.27,15.8-.17,4,.14,5.72,1.65,7.59a24.16,24.16,0,0,1,3.74,6.91c.48,2.76,4.18,7.24,6,9.19,4.06,4.28,11.42,10.19,14.16,14.47,1.64,2.56,2,4.63,1.25,5.61-3.12,3.9-7.68,4.36-12.17,6.46-2.55,1.2-4,1.32-6.14.44a3,3,0,0,0-3.15.25c-6,1.23-6.77,1.42-10.82.79Z" transform="translate(-0.01 0.02)"/>
  </g>
</svg>
